<svg width="42" height="30" viewBox="0 0 42 30" fill="none" xmlns="http://www.w3.org/2000/svg" xmlns:xlink="http://www.w3.org/1999/xlink">
<path d="M2,-0.5C0.619,-0.5 -0.5,0.619 -0.5,2C-0.5,3.381 0.619,4.5 2,4.5L2,-0.5ZM38,4.5C39.381,4.5 40.5,3.381 40.5,2C40.5,0.619 39.381,-0.5 38,-0.5L38,4.5ZM2,11.5C0.619,11.5 -0.5,12.619 -0.5,14C-0.5,15.381 0.619,16.5 2,16.5L2,11.5ZM38,16.5C39.381,16.5 40.5,15.381 40.5,14C40.5,12.619 39.381,11.5 38,11.5L38,16.5ZM2,23.5C0.619,23.5 -0.5,24.619 -0.5,26C-0.5,27.381 0.619,28.5 2,28.5L2,23.5ZM38,28.5C39.381,28.5 40.5,27.381 40.5,26C40.5,24.619 39.381,23.5 38,23.5L38,28.5ZM2,4.5L38,4.5L38,-0.5L2,-0.5L2,4.5ZM2,16.5L38,16.5L38,11.5L2,11.5L2,16.5ZM2,28.5L38,28.5L38,23.5L2,23.5L2,28.5Z" fill="#FFFFFF"/>
</svg>
